<?xml version="1.0" encoding="UTF-8"?>
<svg width="86px" height="33px" viewBox="0 0 86 33" version="1.1" xmlns="http://www.w3.org/2000/svg" xmlns:xlink="http://www.w3.org/1999/xlink">
    <!-- Generator: Sketch 55 (78076) - https://sketchapp.com -->
    <title>Logo</title>
    <desc>Created with Sketch.</desc>
    <g id="Page-1" stroke="none" stroke-width="1" fill="none" fill-rule="evenodd">
        <g id="HOME" transform="translate(-681.000000, -44.000000)" fill="#E70000">
            <g id="Group-5" transform="translate(-395.000000, 0.000000)">
                <g id="Header" transform="translate(395.000000, 0.000000)">
                    <g id="1440-Navigation-Bar">
                        <g id="Group" transform="translate(225.000000, 43.000000)">
                            <g id="LOGO" transform="translate(454.000000, 0.000000)">
                                <path d="M19.3799325,1.17963966 C20.9148222,1.25551125 22.1263851,2.50558604 22.1380628,4.02446304 L22.1380628,26.7816049 C22.1380628,26.9253996 22.1380628,26.9253996 21.4797316,26.9253996 C20.1637991,26.9253996 19.4791931,26.0676894 19.29016,25.3335414 L19.2865108,25.2995798 L19.2828615,24.0191564 C17.4319436,25.8697006 14.8905809,26.924677 12.2536069,26.924677 C6.80376321,26.924677 2.36842105,22.5371313 2.36842105,17.1451902 C2.36842105,11.7525266 6.80376321,7.36498082 12.2536069,7.36498082 C14.8708747,7.36498082 17.4005598,8.40767326 19.2485582,10.2372625 L19.2325013,3.67473113 L19.2397999,3.67473113 L19.2325013,1.17241379 L19.3799325,1.17963966 Z M12.2536069,24.0437243 C16.0992244,24.0437243 19.2266625,20.948886 19.2266625,17.1451902 C19.2266625,13.3407719 16.0992244,10.2459335 12.2536069,10.2459335 C8.40944903,10.2459335 5.2812811,13.3407719 5.2812811,17.1451902 C5.2812811,20.948886 8.40944903,24.0437243 12.2536069,24.0437243 Z M77.747123,7.37242346 C83.1984264,7.37242346 87.6315789,11.7599692 87.6315789,17.1526329 C87.6315789,22.5452965 83.1984264,26.9321197 77.747123,26.9321197 C75.1291253,26.9321197 72.6001701,25.8894273 70.7521717,24.059838 C70.7623897,27.6525385 70.7674987,30.4699036 70.7674987,30.4756843 L70.7674987,30.6238145 L70.7623897,30.6238145 C70.7667688,32.0581489 70.7674987,32.9751113 70.7674987,32.9787242 L70.7674987,33.1246867 L70.6200675,33.1174608 C69.0873674,33.0415893 67.8758045,31.7922371 67.8619372,30.2726375 L67.8619372,7.5154956 C67.8619372,7.37242346 67.8619372,7.37242346 68.5202684,7.37242346 C69.8362009,7.37242346 70.5229965,8.22941115 70.70984,8.9642817 L70.7142191,8.99752068 L70.7178684,10.2779441 C72.5687862,8.42739987 75.1108788,7.37242346 77.747123,7.37242346 Z M77.747123,24.051167 C81.5927405,24.051167 84.7209085,20.9563286 84.7209085,17.1526329 C84.7209085,13.3482145 81.5927405,10.2533762 77.747123,10.2533762 C73.9015055,10.2533762 70.7733375,13.3482145 70.7733375,17.1526329 C70.7733375,20.9563286 73.9015055,24.051167 77.747123,24.051167 Z M35.68049,26.9270616 C30.2299165,26.9270616 25.7960341,22.5395158 25.7960341,17.1468522 C25.7960341,11.7484078 30.2299165,7.36086207 35.68049,7.36086207 C38.2400992,7.36086207 40.6676042,8.33129585 42.518522,10.0936845 C42.5688822,10.134872 42.6243513,10.1868982 42.6732518,10.24326 C43.3118768,10.8762458 43.7972318,11.6364069 43.8176678,11.6689233 L43.8957626,11.7910404 L43.7687674,11.8632991 C43.7140281,11.8943703 42.4141525,12.6277957 41.5806555,12.6277957 C41.2047791,12.6277957 40.8500685,12.4876139 40.5785616,12.2318182 L40.5610451,12.2274827 L40.5391493,12.1949663 C39.2305154,10.9354979 37.505133,10.2425374 35.68049,10.2425374 C32.3859146,10.2425374 29.5467702,12.5251884 28.862894,15.6944531 L39.9997849,15.6944531 C40.4574053,15.6944531 40.8836419,15.9755393 41.1120872,16.4271559 C41.1544189,16.5095308 41.1879924,16.5976864 41.2142672,16.6995711 L41.2149971,16.6995711 L41.2471108,16.8404755 C41.2587885,16.9011727 41.266817,16.9640378 41.2711961,17.0276254 C41.2741155,17.0651999 41.2748454,17.1042196 41.2748454,17.1432392 C41.2748454,17.1844267 41.2741155,17.2227238 41.2711961,17.2617434 C41.266817,17.3238859 41.2587885,17.3867509 41.2456511,17.449616 L41.2420018,17.4806872 L41.2142672,17.5890752 C41.1879924,17.6902373 41.1544189,17.7783928 41.1120872,17.8607677 C40.8836419,18.3131069 40.4574053,18.5934705 39.9997849,18.5934705 L28.862894,18.5934705 C29.5467702,21.7627353 32.3859146,24.0461089 35.68049,24.0461089 C37.5109718,24.0461089 39.2385438,23.3495354 40.5493673,22.0835637 L40.5756422,22.0589958 C40.8478789,21.8017549 41.2033194,21.660128 41.5806555,21.660128 C42.4141525,21.660128 43.7140281,22.3935534 43.7687674,22.4246246 L43.8957626,22.4968832 L43.8176678,22.619723 C43.7972318,22.6515168 43.3118768,23.4116779 42.6666831,24.0518896 C42.6243513,24.101748 42.5688822,24.1530517 42.5112235,24.201465 C40.6676042,25.9566278 38.2400992,26.9270616 35.68049,26.9270616 Z M54.8698953,7.36115111 C60.3204688,7.36115111 64.7543512,11.7486968 64.7543512,17.1413605 C64.7543512,22.5398049 60.3204688,26.9273506 54.8698953,26.9273506 C52.3117458,26.9273506 49.8827811,25.9569168 48.0318633,24.1945282 C47.9815031,24.1533407 47.9274937,24.1020371 47.8778634,24.0456753 C47.2385085,23.4119669 46.7531535,22.6510832 46.7334473,22.6192894 L46.6553526,22.4971723 L46.7823478,22.4249136 C46.837087,22.3938424 48.1369627,21.660417 48.9697298,21.660417 C49.3456062,21.660417 49.7003168,21.8005988 49.9725535,22.0563945 L49.9740133,22.057117 L50.0032075,22.0845753 C51.3118415,23.3491019 53.0408732,24.0456753 54.8698953,24.0456753 C58.1644707,24.0456753 61.0050749,21.7630243 61.6874913,18.5937595 L50.5513303,18.5937595 C50.0944397,18.5937595 49.6674732,18.3126734 49.4382981,17.8610568 C49.3966962,17.7786819 49.3638526,17.6905263 49.3361181,17.5886416 L49.3317389,17.5886416 L49.3040044,17.4470146 C49.2923266,17.38704 49.2835684,17.3241749 49.2791892,17.2605873 C49.2762698,17.2237354 49.2755399,17.1847157 49.2755399,17.1449734 C49.2755399,17.1030634 49.2762698,17.0647663 49.2791892,17.0250241 C49.2835684,16.9643268 49.2923266,16.9014618 49.3047342,16.8385967 L49.3295494,16.7244281 C49.3580138,16.6124271 49.3930469,16.5163231 49.4382981,16.4267224 C49.6674732,15.9751058 50.0944397,15.6947422 50.5513303,15.6947422 L61.6874913,15.6947422 C61.0050749,12.5254774 58.1644707,10.2421038 54.8698953,10.2421038 C53.0408732,10.2421038 51.3118415,10.9386773 50.0024777,12.204649 L49.9747431,12.2299395 C49.7025064,12.4871803 49.3470659,12.6280847 48.9697298,12.6280847 C48.1369627,12.6280847 46.837087,11.8946593 46.7823478,11.8635881 L46.6553526,11.7913295 L46.7334473,11.6684897 C46.7531535,11.6366959 47.2385085,10.8765348 47.8837023,10.2363231 C47.9274937,10.1864646 47.9815031,10.135161 48.0391618,10.0867477 C49.8827811,8.33158489 52.3117458,7.36115111 54.8698953,7.36115111 Z" id="DEEP-LOGO-"></path>
                            </g>
                        </g>
                    </g>
                </g>
            </g>
        </g>
    </g>
</svg>